<svg xmlns="http://www.w3.org/2000/svg" version="1.1" xmlns:xlink="http://www.w3.org/1999/xlink" xmlns:svgjs="http://svgjs.dev/svgjs" width="1500" height="1500" viewBox="0 0 1500 1500"><rect width="1500" height="1500" fill="#ffffff"></rect><g transform="matrix(0.6666666666666666,0,0,0.6666666666666666,248.2124581985422,672.8930555555555)"><svg viewBox="0 0 233 36" data-background-color="#ffffff" preserveAspectRatio="xMidYMid meet" height="231" width="1500" xmlns="http://www.w3.org/2000/svg" xmlns:xlink="http://www.w3.org/1999/xlink"><g id="tight-bounds" transform="matrix(1,0,0,1,0.41649723973966957,0.025000000000005684)"><svg viewBox="0 0 232.16700552052066 35.95" height="35.95" width="232.16700552052066"><g><svg viewBox="0 0 232.16700552052066 35.95" height="35.95" width="232.16700552052066"><g><svg viewBox="0 0 232.16700552052066 35.95" height="35.95" width="232.16700552052066"><g id="textblocktransform"><svg viewBox="0 0 232.16700552052066 35.95" height="35.95" width="232.16700552052066" id="textblock"><g><svg viewBox="0 0 232.16700552052066 35.95" height="35.95" width="232.16700552052066"><g><svg><g></g><g></g></svg></g><g><svg><g><svg></svg></g><g></g></svg></g><g id="text-0"><svg viewBox="0 0 232.16700552052066 35.95" height="35.95" width="232.16700552052066"><g transform="matrix(1,0,0,1,0,0)"><svg width="184.55" viewBox="3.8999999999999995 -35.5 188.98 36.15" height="35.95" data-palette-color="#ed3b43"><path d="M3.9 0L3.9-27.45Q3.9-31.6 6-33.55 8.1-35.5 11.2-35.5L11.2-35.5Q12.15-35.5 13.05-35.35L13.05-35.35 12.6-32.9Q11.7-33 11.3-33L11.3-33Q6.7-33 6.7-27.45L6.7-27.45 6.7-25.05 12.4-25.05 11.2-22.4 6.7-22.4 6.7 0 3.9 0ZM17.4 0L17.4-35 20.2-35 20.2 0 17.4 0ZM45.3 0Q39.9 0.55 37.5 0.55L37.5 0.55Q32.25 0.55 29.14-1.4 26.05-3.35 26.05-8.45L26.05-8.45 26.05-12.6Q26.05-17.55 29.5-19.25L29.5-19.25Q31.14-20.1 33.7-20.1L33.7-20.1Q36.05-20.1 38.45-19.33 40.84-18.55 42.5-17.3L42.5-17.3Q42.5-20.05 40.89-21.68 39.3-23.3 34.75-23.3L34.75-23.3 34.9-25.45Q39.7-25.45 41.97-23.93 44.25-22.4 44.77-20.3 45.3-18.2 45.3-14.9L45.3-14.9 45.3 0ZM42.5-15.15Q40.45-16.1 38.12-16.8 35.8-17.5 33.84-17.5L33.84-17.5Q28.8-17.5 28.8-12.45L28.8-12.45 28.8-8.1Q28.8-4.85 31.05-3.38 33.3-1.9 37.45-1.9L37.45-1.9Q39.59-1.9 42.5-2.3L42.5-2.3 42.5-15.15ZM54.04 0L46.39-25.05 49.34-25.05 55.99-2.9 62.69-25.05 65.64-25.05 57.89 0 54.04 0ZM87.24-9.2Q87.24-5 84.94-2.25 82.64 0.5 77.99 0.5L77.99 0.5Q73.34 0.5 70.97-2.27 68.59-5.05 68.59-9.2L68.59-9.2 68.59-15.8Q68.59-20.55 71.02-23.08 73.44-25.6 77.99-25.6L77.99-25.6Q82.34-25.6 84.79-22.98 87.24-20.35 87.24-15.8L87.24-15.8 87.24-9.2ZM84.44-15.8Q84.44-19.55 82.72-21.3 80.99-23.05 77.99-23.05L77.99-23.05Q74.89-23.05 73.14-21.3 71.39-19.55 71.39-15.8L71.39-15.8 71.39-8.7Q71.39-5.7 73.16-3.85 74.94-2 77.99-2L77.99-2Q81.09-2 82.77-3.83 84.44-5.65 84.44-8.7L84.44-8.7 84.44-15.8ZM91.94 0L91.94-25.05 94.74-25.05 94.59-23.3Q96.94-25.5 100.74-25.5L100.74-25.5Q102.09-25.5 104.44-25.05L104.44-25.05 103.69-22.5Q102.09-23 100.34-23L100.34-23Q98.04-23 96.39-22.15 94.74-21.3 94.74-19.6L94.74-19.6 94.74 0 91.94 0ZM109.44 0L109.44-35 126.14-35 126.14-32.35 112.24-32.35 112.24-20.65 120.79-20.65 119.64-17.9 112.24-17.9 112.24 0 109.44 0ZM131.68 0L131.68-35 134.48-35 134.48 0 131.68 0ZM156.98-1.75Q155.18-0.6 152.88 0 150.58 0.6 148.28 0.6L148.28 0.6Q144.58 0.6 142.41-1.23 140.23-3.05 140.23-6.7L140.23-6.7 140.23-16.95Q140.23-21 142.76-23.25 145.28-25.5 149.43-25.5L149.43-25.5Q153.58-25.5 155.91-23.28 158.23-21.05 158.23-17.1L158.23-17.1 158.23-10.6 143.03-9.75 143.03-6.7Q143.03-4.3 144.58-3.1 146.13-1.9 148.63-1.9L148.63-1.9Q152.13-1.9 155.88-3.9L155.88-3.9 156.98-1.75ZM155.43-17.45Q155.43-20.55 153.48-21.83 151.53-23.1 149.38-23.1L149.38-23.1Q146.63-23.1 144.83-21.6 143.03-20.1 143.03-16.9L143.03-16.9 143.03-12.5 155.43-13.1 155.43-17.45ZM178.68-1.75Q176.88-0.6 174.58 0 172.28 0.6 169.98 0.6L169.98 0.6Q166.28 0.6 164.1-1.23 161.93-3.05 161.93-6.7L161.93-6.7 161.93-16.95Q161.93-21 164.45-23.25 166.98-25.5 171.13-25.5L171.13-25.5Q175.28-25.5 177.6-23.28 179.93-21.05 179.93-17.1L179.93-17.1 179.93-10.6 164.73-9.75 164.73-6.7Q164.73-4.3 166.28-3.1 167.83-1.9 170.33-1.9L170.33-1.9Q173.83-1.9 177.58-3.9L177.58-3.9 178.68-1.75ZM177.13-17.45Q177.13-20.55 175.18-21.83 173.23-23.1 171.08-23.1L171.08-23.1Q168.33-23.1 166.53-21.6 164.73-20.1 164.73-16.9L164.73-16.9 164.73-12.5 177.13-13.1 177.13-17.45ZM189.38 0.65Q186.57-0.15 185.32-1.9 184.07-3.65 184.07-6.6L184.07-6.6 184.07-35 186.88-35 186.88-25.05 192.88-25.05 191.68-22.4 186.88-22.4 186.88-6.6Q186.88-2.6 190.18-1.5L190.18-1.5 189.38 0.65Z" opacity="1" transform="matrix(1,0,0,1,0,0)" fill="#000000" class="wordmark-text-0" data-fill-palette-color="primary"></path></svg></g><g><svg xmlns="http://www.w3.org/2000/svg" xmlns:xlink="http://www.w3.org/1999/xlink" version="1.1" x="198.2829" y="0" viewBox="2.8739109877877485 0.00005476210983489105 94.25337125137571 99.99994523789016" enable-background="new 0 0 100 100" xml:space="preserve" height="35.95" width="33.884105520520656" class="icon-dxe-0" data-fill-palette-color="accent" id="dxe-0"><g fill="#ff175d" data-fill-palette-color="accent"><path d="M97.12 24.77C97.035 23.566 96.231 22.639 95.322 22.702 94.819 22.734 94.392 23.063 94.122 23.553 85.007 23.862 75.854 26.079 66.904 30.152A89 89 0 0 0 56.363 35.859C62.062 24.62 71.208 11.855 85.429 3.639 86.043 4.116 86.786 4.247 87.343 3.904 88.116 3.425 88.228 2.205 87.588 1.18 86.949 0.156 85.803-0.287 85.028 0.195 84.602 0.46 84.378 0.95 84.369 1.509 76.46 6.052 69.412 12.298 63.415 20.09 59.251 25.496 55.585 31.652 52.481 38.433A106 106 0 0 0 45.267 43.933C35.509 52.038 28.988 60.454 26.847 63.378 26.208 62.741 25.654 62.096 25.287 61.51 24.452 60.171 23.491 59.333 22.974 58.883L22.792 58.724C20.771 57.126 18.401 56.703 17.945 56.637L17.886 56.628 17.864 56.624C15.626 56.289 13.463 56.936 13.441 56.943 10.764 57.807 8.616 59.503 8.305 59.801 6.162 61.826 5.301 63.266 4.977 63.809 4.936 63.877 4.902 63.934 4.875 63.976 3.539 66.283 3.131 68.716 3.127 68.741A16.2 16.2 0 0 0 2.963 73.29L2.979 73.451C2.99 73.599 3.029 73.882 3.091 74.147L3.093 74.165C3.317 75.541 3.781 76.783 3.934 77.191 3.96 77.257 3.978 77.307 3.989 77.337 5.402 80.635 7.26 82.481 7.618 82.817L7.628 82.826C9.141 84.309 10.999 85.453 13.153 86.229 13.258 86.267 13.315 86.287 13.353 86.304A12 12 0 0 0 14.154 86.542 14 14 0 0 0 16.145 86.988C16.483 87.039 16.837 87.081 17.228 87.117 19.232 87.284 20.695 87.115 20.709 87.113A19.2 19.2 0 0 0 25.447 85.917 15 15 0 0 1 25.366 85.535C25.359 85.48 25.345 85.404 25.329 85.314 25.203 84.608 24.869 82.727 25.196 79.389 25.241 78.9 25.821 75.835 27.476 73.095 27.49 73.074 28.877 70.886 31.063 69.5 31.077 69.491 31.758 69.039 32.852 68.582 32.067 67.536 31.228 66.872 30.141 66.057A19 19 0 0 1 29.142 65.355C30.862 62.736 37.037 53.844 46.837 45.716 48.023 44.732 49.29 43.726 50.63 42.714 45.595 55.07 43.891 65.988 43.509 68.814A10.7 10.7 0 0 1 41.715 68.458C39.996 67.93 38.544 67.928 37.764 67.928L37.488 67.927C35.928 67.999 34.523 68.438 33.488 68.871 32.394 69.329 31.712 69.781 31.699 69.791 29.513 71.176 28.127 73.363 28.113 73.385 26.457 76.126 25.878 79.19 25.833 79.679 25.506 83.017 25.84 84.898 25.966 85.605 25.982 85.694 25.996 85.771 26.004 85.826 26.029 85.956 26.055 86.081 26.084 86.207 26.703 89.006 28.046 91.205 28.06 91.228 29.375 93.431 30.836 94.805 31.317 95.259L31.448 95.382C31.57 95.503 31.815 95.718 32.068 95.902L32.081 95.912C33.303 96.929 34.628 97.648 35.063 97.885 35.137 97.924 35.19 97.954 35.221 97.972 38.898 99.752 41.873 99.951 42.432 99.97H42.447C42.762 99.99 43.082 100 43.397 100 46.563 100 48.952 99.073 49.736 98.771 49.856 98.722 49.92 98.699 49.964 98.686 50.267 98.562 50.555 98.431 50.819 98.298L50.83 98.292C51.868 97.83 52.814 97.274 53.899 96.491 55.748 95.14 56.878 93.9 56.889 93.89 60.007 90.416 60.915 87.347 60.924 87.315L60.929 87.3C62.283 83.622 62.119 80.473 62.117 80.442L62.116 80.422C62.129 76.143 60.205 73.521 60.185 73.495L60.18 73.486C58.678 71.305 56.54 69.789 53.825 68.984A6 6 0 0 1 53.611 68.917 10.5 10.5 0 0 0 51.188 68.654C50.548 68.654 49.883 68.697 49.257 68.744 48.435 68.855 47.488 68.924 46.544 68.943 46.824 65.907 48.1 55.095 52.982 43.243A108 108 0 0 1 54.368 40.026C64.564 33.042 78.216 26.505 94.063 25.931 94.381 26.64 94.979 27.104 95.631 27.06 96.536 27 97.205 25.975 97.12 24.77M24.493 63.318A0.17 0.17 0 0 1 24.283 63.336C24.272 63.328 23.139 62.591 22.095 62.435 21.178 62.296 20.646 62.642 20.467 63.493A0.17 0.17 0 0 1 20.289 63.625L20.276 63.624A0.17 0.17 0 0 1 20.132 63.47C20.108 63.171 19.918 60.526 20.729 59.768A0.76 0.76 0 0 1 21.379 59.566C22.141 59.681 23.17 60.839 24.524 63.109A0.175 0.175 0 0 1 24.493 63.318M42.433 70.962A0.247 0.247 0 0 1 42.151 71.163 5 5 0 0 0 41.457 71.115C41.015 71.115 40.24 71.18 40.03 71.621 39.818 72.065 40.18 72.901 41.05 73.975A0.25 0.25 0 0 1 41.051 74.286 0.24 0.24 0 0 1 40.858 74.378 0.3 0.3 0 0 1 40.749 74.356C40.736 74.348 39.389 73.688 38.089 72.917 35.633 71.46 35.418 70.849 35.502 70.48 35.619 69.975 36.382 69.918 36.946 69.918 38.019 69.918 39.801 70.172 42.24 70.676A0.25 0.25 0 0 1 42.433 70.962" fill="#000000" data-fill-palette-color="accent"></path></g></svg></g></svg></g></svg></g></svg></g></svg></g></svg></g><defs></defs></svg><rect width="232.16700552052066" height="35.95" fill="none" stroke="none" visibility="hidden"></rect></g></svg></g></svg>